# xmcd CD database file
#
# Track frame offsets:
#	150
#	1302
#	23249
#	41811
#	66155
#	89260
#	110389
#	129006
#	157698
#
# Disc length: 2465 seconds
#
# Revision: 0
# Processed by: cddbd v1.5.1PL0 Copyright (c) Steve Scherf et al.
# Submitted via: CDex 1.51
#
DISCID=60099f09
DTITLE=Various Artist - African Jazz Pioneers
DYEAR=1900
DGENRE=Jazz
TTITLE0=Intro
TTITLE1=Nonto Sangoma
TTITLE2=Yeka Yeka
TTITLE3=Hell Fire
TTITLE4=Hosh
TTITLE5=Mzabalazo
TTITLE6=Ten Ten Special
TTITLE7=Riverside Special
TTITLE8=Mbombela
EXTD=
EXTT0=
EXTT1=
EXTT2=
EXTT3=
EXTT4=
EXTT5=
EXTT6=
EXTT7=
EXTT8=
PLAYORDER=
